<?xml version="1.0" encoding="UTF-8"?>
<svg width="800px" height="800px" viewBox="0 0 800 800" version="1.1" xmlns="http://www.w3.org/2000/svg" xmlns:xlink="http://www.w3.org/1999/xlink">
    <!-- Generator: Sketch 42 (36781) - http://www.bohemiancoding.com/sketch -->
    <title>IF</title>
    <desc>Created with Sketch.</desc>
    <defs></defs>
    <g id="Page-1" stroke="none" stroke-width="1" fill="none" fill-rule="evenodd">
        <g id="IF">
            <g id="Group" transform="translate(200.000000, 94.000000)">
                <g id="Action-Copy" transform="translate(28.000000, 0.000000)">
                    <path d="M2,25 C2,37.7043473 12.300004,48 25.008468,48 L74.991532,48 C87.7017446,48 98,37.7039764 98,25 C98,12.2956527 87.699996,2 74.991532,2 L25.008468,2 C12.2982554,2 2,12.2960236 2,25 Z M0,25 C0,11.1928813 11.1922584,0 25.008468,0 L74.991532,0 C88.8033275,0 100,11.1898454 100,25 C100,38.8071187 88.8077416,50 74.991532,50 L25.008468,50 C11.1966725,50 0,38.8101546 0,25 Z" id="Rectangle-2" fill="#999999" fill-rule="nonzero"></path>
                    <path d="M37.980644,20.5454636 L36.4849068,20.5454636 L36.4849068,30 L37.980644,30 L37.980644,20.5454636 Z M41.2537265,25.9559698 C41.2537265,24.7418374 42.0062116,24.0909147 42.8140943,24.0909147 C43.5988947,24.0909147 44.1759538,24.6587409 44.1759538,25.5958849 L44.1759538,30 L45.6255263,30 L45.6255263,25.5220213 C45.6255263,23.624651 44.5914364,22.8167682 43.3034405,22.8167682 C42.3247482,22.8167682 41.6276608,23.3061143 41.2721924,23.9524205 L41.1983288,23.9524205 L41.1983288,22.9090977 L39.804154,22.9090977 L39.804154,30 L41.2537265,30 L41.2537265,25.9559698 Z M48.7601185,22.9090977 L47.3105461,22.9090977 L47.3105461,30 L48.7601185,30 L48.7601185,22.9090977 Z M47.3428614,22.1612291 L48.4600478,22.1612291 L49.9973333,20.2407764 L48.5015961,20.2407764 L47.3428614,22.1612291 Z M56.2757394,25.1157717 C56.086464,23.7677616 54.9554281,22.8167682 53.3535121,22.8167682 C51.3638123,22.8167682 50.1496799,24.3448207 50.1496799,26.4591653 C50.1496799,28.6196746 51.3776617,30.1431107 53.362745,30.1431107 C54.9923599,30.1431107 56.086464,29.2151996 56.2757394,27.8856554 L54.9000305,27.7702436 C54.7384539,28.4119333 54.2260254,28.9105124 53.3488956,28.9105124 C52.2455586,28.9105124 51.5623206,27.9133543 51.5623206,26.4591653 C51.5623206,25.069607 52.2224762,24.0401335 53.3535121,24.0401335 C54.3137384,24.0401335 54.7707692,24.7049056 54.9092634,25.2404165 L56.2757394,25.1157717 Z M58.3254601,22.1150643 C58.8563545,22.1150643 59.2256724,21.7272806 59.2256724,21.2656333 C59.2256724,20.8224519 58.8563545,20.4162023 58.3254601,20.4162023 C57.7945658,20.4162023 57.4206315,20.8224519 57.4206315,21.2656333 C57.4206315,21.7272806 57.7945658,22.1150643 58.3254601,22.1150643 Z M59.0548629,22.9090977 L57.6052904,22.9090977 L57.6052904,30 L59.0548629,30 L59.0548629,22.9090977 Z M63.634407,30.1338777 C61.7370366,30.1338777 60.4444242,28.7489359 60.4444242,26.4545488 C60.4444242,24.2478748 61.7647354,22.8167682 63.6297905,22.8167682 C65.5179279,22.8167682 66.8613215,24.1509289 66.8613215,26.4545488 C66.8613215,28.80895 65.5502432,30.1338777 63.634407,30.1338777 Z M63.6297905,28.9105124 C64.7469769,28.9105124 65.4532973,28.0518484 65.4532973,26.4545488 C65.4532973,24.8710986 64.737744,24.0401335 63.6297905,24.0401335 C62.5541523,24.0401335 61.8662978,24.9680446 61.8662978,26.4545488 C61.8662978,27.9364366 62.4987546,28.9105124 63.6297905,28.9105124 Z" id="START" fill="#000000"></path>
                </g>
                <g id="Rectangle-Copy-28" transform="translate(29.000000, 126.000000)">
                    <path d="M46.8386962,94.8656082 C48.0134332,96.0403451 49.9078415,96.0393807 51.081614,94.8656082 L94.8656082,51.081614 C96.0403451,49.9068771 96.0393807,48.0124687 94.8656082,46.8386962 L51.081614,3.05470205 C49.9068771,1.87996512 48.0124687,1.88092957 46.8386962,3.05470205 L3.05470205,46.8386962 C1.87996512,48.0134332 1.88092957,49.9078415 3.05470205,51.081614 L46.8386962,94.8656082 Z M1.64048849,52.4958275 C-0.31220948,50.5431296 -0.317418658,47.3823898 1.64048849,45.4244827 L45.4244827,1.64048849 C47.3771806,-0.31220948 50.5379204,-0.317418658 52.4958275,1.64048849 L96.2798217,45.4244827 C98.2325197,47.3771806 98.2377289,50.5379204 96.2798217,52.4958275 L52.4958275,96.2798217 C50.5431296,98.2325197 47.3823898,98.2377289 45.4244827,96.2798217 L1.64048849,52.4958275 Z" id="Rectangle" fill="#00D65F" fill-rule="nonzero"></path>
                    <path d="M47.0355064,46.7443241 L48.6803912,46.7443241 C48.6505616,45.1846665 47.3977219,44.1534175 45.5866441,44.1534175 C43.784089,44.1534175 42.4374994,45.1122234 42.4374994,46.6036993 C42.4374994,48.0312547 43.3622144,48.6321064 44.8494289,49.0667651 L45.3352239,49.20739 C46.6221545,49.6036964 47.0738586,49.9914801 47.0738586,50.5923318 C47.0738586,51.2017063 46.5113591,51.7215921 45.5610759,51.7215921 C44.5255656,51.7215921 43.9076684,51.2443199 43.843748,50.3536957 L42.1903405,50.3536957 C42.2244314,52.2159098 43.7670436,53.1321021 45.5227237,53.1321021 C47.5255627,53.1321021 48.7230047,52.1519894 48.7230047,50.5497182 C48.7230047,49.2201741 47.8110738,48.5042657 46.166189,47.9715957 L45.7017008,47.8224481 C44.6874972,47.4943234 44.0951683,47.1960283 44.0951683,46.5994379 C44.0951683,45.9815408 44.6278382,45.5681889 45.5440305,45.5681889 C46.4431774,45.5681889 46.9588019,46.019893 47.0355064,46.7443241 Z M55.6264144,51.6065354 L51.6249977,51.6065354 L51.6249977,49.3309694 L55.0596536,49.3309694 L55.0596536,47.9375048 L51.6249977,47.9375048 L51.6249977,45.6662002 L55.6008462,45.6662002 L55.6008462,44.2727356 L49.9673289,44.2727356 L49.9673289,53 L55.6264144,53 L55.6264144,51.6065354 Z" id="SE" fill="#00D563"></path>
                </g>
                <g id="Rectangle-Copy-28" transform="translate(0.000000, 359.000000)">
                    <path d="M2,10.0000638 L2,89.9999362 C2,94.4196986 5.58152834,98 10.0017993,98 L139.998201,98 C144.423242,98 148,94.421607 148,89.9999362 L148,10.0000638 C148,5.58030135 144.418472,2 139.998201,2 L10.0017993,2 C5.57675843,2 2,5.57839298 2,10.0000638 Z M0,10.0000638 C0,4.47718108 4.46883267,0 10.0017993,0 L139.998201,0 C145.522042,0 150,4.47473288 150,10.0000638 L150,89.9999362 C150,95.5228189 145.531167,100 139.998201,100 L10.0017993,100 C4.47795805,100 0,95.5252671 0,89.9999362 L0,10.0000638 Z" id="Rectangle" fill="#999999" fill-rule="nonzero"></path>
                    <path d="M29.0475794,49.4914816 C28.8728636,48.2471646 27.8288305,47.3693245 26.3501388,47.3693245 C24.5134928,47.3693245 23.3927552,48.7798345 23.3927552,50.7315372 C23.3927552,52.7258535 24.5262769,54.1321021 26.3586615,54.1321021 C27.8629214,54.1321021 28.8728636,53.2755689 29.0475794,52.0482973 L27.7776942,51.9417633 C27.6285466,52.5340923 27.1555357,52.9943191 26.3458774,52.9943191 C25.3274125,52.9943191 24.6967312,52.0738655 24.6967312,50.7315372 C24.6967312,49.448868 25.3061057,48.4985848 26.3501388,48.4985848 C27.2365015,48.4985848 27.6583761,49.1122206 27.7862169,49.6065383 L29.0475794,49.4914816 Z M32.9211615,54.1235794 C31.1697427,54.1235794 29.976562,52.8451716 29.976562,50.7272758 C29.976562,48.690346 31.1953109,47.3693245 32.9169001,47.3693245 C34.6597962,47.3693245 35.8998518,48.6008574 35.8998518,50.7272758 C35.8998518,52.9005692 34.6896257,54.1235794 32.9211615,54.1235794 Z M32.9169001,52.9943191 C33.9481492,52.9943191 34.6001372,52.2017063 34.6001372,50.7272758 C34.6001372,49.2656295 33.9396264,48.4985848 32.9169001,48.4985848 C31.9240034,48.4985848 31.2890608,49.3551181 31.2890608,50.7272758 C31.2890608,52.0951723 31.872867,52.9943191 32.9169001,52.9943191 Z M32.2734348,46.7301206 L33.3046839,46.7301206 L34.7237166,44.957395 L33.3430361,44.957395 L32.2734348,46.7301206 Z M42.7904769,54 L41.5205917,54 L41.4950235,53.3906256 L41.4353645,53.3906256 C41.0901944,53.8252843 40.5575244,54.1321021 39.7649116,54.1321021 C38.051845,54.1321021 36.8842325,52.7599444 36.8842325,50.7315372 C36.8842325,48.7244368 38.051845,47.3693245 39.7606502,47.3693245 C40.5276949,47.3693245 41.0518421,47.6676197 41.3970123,48.0894943 L41.4524099,48.0894943 L41.4524099,45.2727356 L42.7904769,45.2727356 L42.7904769,54 Z M38.1882085,50.7315372 C38.1882085,52.0823882 38.8274124,52.9943191 39.8501387,52.9943191 C40.6384903,52.9943191 41.2734328,52.4446038 41.4353645,51.7627862 C41.5248531,51.4090934 41.5461599,50.9318211 41.5504212,50.7230145 C41.5461599,50.5227306 41.5291144,50.1136401 41.4311031,49.7514245 C41.2606488,49.1463114 40.706672,48.4985848 39.8544001,48.4985848 C38.8274124,48.4985848 38.1882085,49.3934703 38.1882085,50.7315372 Z M45.010652,46.7215979 C45.5007084,46.7215979 45.8416171,46.3636436 45.8416171,45.9375077 C45.8416171,45.5284172 45.5007084,45.1534175 45.010652,45.1534175 C44.5205957,45.1534175 44.1754255,45.5284172 44.1754255,45.9375077 C44.1754255,46.3636436 44.5205957,46.7215979 45.010652,46.7215979 Z M45.6839468,47.4545517 L44.3458799,47.4545517 L44.3458799,54 L45.6839468,54 L45.6839468,47.4545517 Z M51.5987167,47.4886426 L52.8728632,47.4886426 L52.8728632,53.9872159 C52.8728632,55.5724417 51.5944553,56.4715886 49.9026956,56.4715886 C48.6072423,56.4715886 47.7720158,55.9218732 47.3799707,55.4232941 L48.1555382,54.592329 C48.4538333,54.8778401 48.9311056,55.3551123 49.8813888,55.3551123 C50.891331,55.3551123 51.543319,54.8948855 51.5518417,53.8082388 L51.5518417,53.2926143 L51.48366,53.2926143 C51.1342285,53.6974435 50.618604,53.9829546 49.8686047,53.9829546 C48.1555382,53.9829546 46.9666188,52.6747172 46.9666188,50.6590941 C46.9666188,48.7116528 48.1427541,47.3693245 49.8643434,47.3693245 C50.6612176,47.3693245 51.1853648,47.671881 51.5220122,48.098017 L51.5774099,48.098017 L51.5987167,47.4886426 Z M48.2705949,50.6590941 C48.2705949,52.0269905 48.935367,52.8536943 49.9538319,52.8536943 C50.7421834,52.8536943 51.3813874,52.3210243 51.543319,51.6519909 C51.6370689,51.3068208 51.6541144,50.8465939 51.6583757,50.6377873 C51.6541144,50.4460261 51.6413303,50.0795492 51.5390577,49.7130723 C51.3600806,49.1164819 50.8231493,48.4858007 49.9580933,48.4858007 C48.9097988,48.4858007 48.2705949,49.3593794 48.2705949,50.6590941 Z M57.0745706,54.1235794 C55.3231518,54.1235794 54.1299711,52.8451716 54.1299711,50.7272758 C54.1299711,48.690346 55.34872,47.3693245 57.0703092,47.3693245 C58.8132053,47.3693245 60.0532609,48.6008574 60.0532609,50.7272758 C60.0532609,52.9005692 58.8430348,54.1235794 57.0745706,54.1235794 Z M57.0703092,52.9943191 C58.1015582,52.9943191 58.7535463,52.2017063 58.7535463,50.7272758 C58.7535463,49.2656295 58.0930355,48.4985848 57.0703092,48.4985848 C56.0774124,48.4985848 55.4424699,49.3551181 55.4424699,50.7272758 C55.4424699,52.0951723 56.0262761,52.9943191 57.0703092,52.9943191 Z M69.9609316,49.4914816 C69.7862159,48.2471646 68.7421828,47.3693245 67.263491,47.3693245 C65.4268451,47.3693245 64.3061075,48.7798345 64.3061075,50.7315372 C64.3061075,52.7258535 65.4396291,54.1321021 67.2720137,54.1321021 C68.7762737,54.1321021 69.7862159,53.2755689 69.9609316,52.0482973 L68.6910465,51.9417633 C68.5418989,52.5340923 68.068888,52.9943191 67.2592297,52.9943191 C66.2407647,52.9943191 65.6100835,52.0738655 65.6100835,50.7315372 C65.6100835,49.448868 66.2194579,48.4985848 67.263491,48.4985848 C68.1498538,48.4985848 68.5717284,49.1122206 68.6995692,49.6065383 L69.9609316,49.4914816 Z M73.8345138,54.1235794 C72.083095,54.1235794 70.8899143,52.8451716 70.8899143,50.7272758 C70.8899143,48.690346 72.1086631,47.3693245 73.8302524,47.3693245 C75.5731485,47.3693245 76.8132041,48.6008574 76.8132041,50.7272758 C76.8132041,52.9005692 75.602978,54.1235794 73.8345138,54.1235794 Z M73.8302524,52.9943191 C74.8615014,52.9943191 75.5134894,52.2017063 75.5134894,50.7272758 C75.5134894,49.2656295 74.8529787,48.4985848 73.8302524,48.4985848 C72.8373556,48.4985848 72.202413,49.3551181 72.202413,50.7272758 C72.202413,52.0951723 72.7862193,52.9943191 73.8302524,52.9943191 Z M79.4083787,50.267049 C79.4083787,49.1463114 80.1029803,48.5454597 80.8487182,48.5454597 C81.5731493,48.5454597 82.1058193,49.069607 82.1058193,49.934663 L82.1058193,54 L83.4438862,54 L83.4438862,49.8664812 C83.4438862,48.1150624 82.4893416,47.3693245 81.3004223,47.3693245 C80.3970141,47.3693245 79.7535488,47.8210286 79.4254241,48.417619 L79.3572424,48.417619 L79.3572424,47.4545517 L78.0703118,47.4545517 L78.0703118,54 L79.4083787,54 L79.4083787,50.267049 Z M90.6072382,54 L89.3373531,54 L89.3117849,53.3906256 L89.2521259,53.3906256 C88.9069557,53.8252843 88.3742858,54.1321021 87.5816729,54.1321021 C85.8686064,54.1321021 84.7009938,52.7599444 84.7009938,50.7315372 C84.7009938,48.7244368 85.8686064,47.3693245 87.5774116,47.3693245 C88.3444563,47.3693245 88.8686035,47.6676197 89.2137736,48.0894943 L89.2691713,48.0894943 L89.2691713,45.2727356 L90.6072382,45.2727356 L90.6072382,54 Z M86.0049699,50.7315372 C86.0049699,52.0823882 86.6441738,52.9943191 87.6669001,52.9943191 C88.4552516,52.9943191 89.0901942,52.4446038 89.2521259,51.7627862 C89.3416144,51.4090934 89.3629212,50.9318211 89.3671826,50.7230145 C89.3629212,50.5227306 89.3458758,50.1136401 89.2478645,49.7514245 C89.0774101,49.1463114 88.5234334,48.4985848 87.6711615,48.4985848 C86.6441738,48.4985848 86.0049699,49.3934703 86.0049699,50.7315372 Z M92.8274134,46.7215979 C93.3174697,46.7215979 93.6583785,46.3636436 93.6583785,45.9375077 C93.6583785,45.5284172 93.3174697,45.1534175 92.8274134,45.1534175 C92.337357,45.1534175 91.9921869,45.5284172 91.9921869,45.9375077 C91.9921869,46.3636436 92.337357,46.7215979 92.8274134,46.7215979 Z M93.5007082,47.4545517 L92.1626413,47.4545517 L92.1626413,54 L93.5007082,54 L93.5007082,47.4545517 Z M100.438204,49.4914816 C100.263489,48.2471646 99.2194555,47.3693245 97.7407638,47.3693245 C95.9041178,47.3693245 94.7833802,48.7798345 94.7833802,50.7315372 C94.7833802,52.7258535 95.9169019,54.1321021 97.7492865,54.1321021 C99.2535464,54.1321021 100.263489,53.2755689 100.438204,52.0482973 L99.1683192,51.9417633 C99.0191716,52.5340923 98.5461607,52.9943191 97.7365024,52.9943191 C96.7180375,52.9943191 96.0873562,52.0738655 96.0873562,50.7315372 C96.0873562,49.448868 96.6967307,48.4985848 97.7407638,48.4985848 C98.6271265,48.4985848 99.0490011,49.1122206 99.1768419,49.6065383 L100.438204,49.4914816 Z M102.330254,46.7215979 C102.820311,46.7215979 103.161219,46.3636436 103.161219,45.9375077 C103.161219,45.5284172 102.820311,45.1534175 102.330254,45.1534175 C101.840198,45.1534175 101.495028,45.5284172 101.495028,45.9375077 C101.495028,46.3636436 101.840198,46.7215979 102.330254,46.7215979 Z M103.003549,47.4545517 L101.665482,47.4545517 L101.665482,54 L103.003549,54 L103.003549,47.4545517 Z M107.230821,54.1235794 C105.479402,54.1235794 104.286221,52.8451716 104.286221,50.7272758 C104.286221,48.690346 105.50497,47.3693245 107.226559,47.3693245 C108.969455,47.3693245 110.209511,48.6008574 110.209511,50.7272758 C110.209511,52.9005692 108.999285,54.1235794 107.230821,54.1235794 Z M107.226559,52.9943191 C108.257808,52.9943191 108.909796,52.2017063 108.909796,50.7272758 C108.909796,49.2656295 108.249286,48.4985848 107.226559,48.4985848 C106.233662,48.4985848 105.59872,49.3551181 105.59872,50.7272758 C105.59872,52.0951723 106.182526,52.9943191 107.226559,52.9943191 Z M112.804685,50.267049 C112.804685,49.1463114 113.499287,48.5454597 114.245025,48.5454597 C114.969456,48.5454597 115.502126,49.069607 115.502126,49.934663 L115.502126,54 L116.840193,54 L116.840193,49.8664812 C116.840193,48.1150624 115.885648,47.3693245 114.696729,47.3693245 C113.793321,47.3693245 113.149856,47.8210286 112.821731,48.417619 L112.753549,48.417619 L112.753549,47.4545517 L111.466619,47.4545517 L111.466619,54 L112.804685,54 L112.804685,50.267049 Z M122.158376,54 L122.158376,53.2286939 L122.10724,53.2286939 C121.902695,53.6250004 121.348718,54.1406249 120.313208,54.1406249 C119.094459,54.1406249 118.110085,53.4332392 118.110085,52.1803995 C118.110085,50.4247193 120.215196,50.0582424 121.689627,49.9218789 L122.124285,49.8835267 L122.124285,49.7173336 C122.124285,48.9247207 121.642752,48.4517098 120.807525,48.4517098 C120.117185,48.4517098 119.686788,48.7755732 119.431106,49.3892089 L118.178266,49.0653456 C118.642755,47.7102333 119.899856,47.3693245 120.833094,47.3693245 C122.222297,47.3693245 123.470875,48.0639261 123.470875,49.8451744 L123.470875,54 L122.158376,54 Z M122.124285,50.8892075 L121.889911,50.906253 C121.186786,50.9573893 119.426845,51.1107982 119.426845,52.163354 C119.426845,52.7215921 119.899856,53.0582395 120.479401,53.0582395 C121.51065,53.0582395 122.124285,52.4190356 122.124285,51.724434 L122.124285,50.8892075 Z M126.338776,45.2727356 L125.000709,45.2727356 L125.000709,54 L126.338776,54 L126.338776,45.2727356 Z" id="landing-page" fill="#000000"></path>
                </g>
                <g id="Path-2-Copy-3" transform="translate(78.000000, 86.000000) rotate(90.000000) translate(-78.000000, -86.000000) translate(41.000000, 78.000000)" fill="#999999">
                    <polygon id="Path-2" fill-rule="nonzero" points="0 9 72 9 72 7 0 7"></polygon>
                    <polygon id="Triangle" points="64 16 64 0 74 8"></polygon>
                </g>
                <g id="Path-2-Copy-14" transform="translate(78.000000, 535.500000) rotate(90.000000) translate(-78.000000, -535.500000) translate(0.500000, 527.500000)" fill="#999999">
                    <polygon id="Path-2" fill-rule="nonzero" points="0 9 146 9 146 7 0 7"></polygon>
                    <polygon id="Triangle" points="145 16 145 1.42108547e-14 155 8"></polygon>
                </g>
                <g id="Path-2-Copy-9" transform="translate(78.500000, 289.000000) rotate(90.000000) translate(-78.500000, -289.000000) translate(12.000000, 281.000000)" fill="#77B7E9">
                    <polygon id="Path-2" fill-rule="nonzero" points="0 9 131 9 131 7 0 7"></polygon>
                    <polygon id="Triangle" points="123 16 123 0 133 8"></polygon>
                </g>
                <g id="Path-2-Copy-6" transform="translate(227.000000, 279.000000) rotate(180.000000) translate(-227.000000, -279.000000) translate(80.000000, 24.000000)" fill="#D79196">
                    <path d="M247,508 L21.0008695,508 C10.508618,508 2,499.487396 2,488.99283 L2,28.0071701 C2,17.5085778 10.5024886,9 20.9949744,9 L294,9 L294,7 L20.9949744,7 C9.3975985,7 -2.27373675e-13,16.4043287 -2.27373675e-13,28.0071701 L-2.27373675e-13,488.99283 C-2.27373675e-13,500.591756 9.40383877,510 21.0008695,510 L247,510 L247,508 Z" id="Path-2" fill-rule="nonzero"></path>
                    <polygon id="Triangle" points="286 16 286 0 294 8"></polygon>
                </g>
                <g id="Answer-NO" transform="translate(350.000000, 250.000000)" stroke="#D79197" stroke-width="2">
                    <circle id="Oval-Copy" fill="#FFFFFF" fill-rule="evenodd" cx="25" cy="25" r="25"></circle>
                    <path d="M31.6841913,32.0154726 L18.0981161,18.0732233" id="Line" stroke-linecap="square"></path>
                    <path d="M31.5483306,18.130974 L17.9622553,32.0732233" id="Line-Copy" stroke-linecap="square"></path>
                </g>
                <g id="Answer-YES" transform="translate(53.000000, 250.000000)" stroke="#77B7E9" stroke-width="2">
                    <circle id="Oval" fill="#FFFFFF" fill-rule="evenodd" cx="25" cy="25" r="25"></circle>
                    <polyline id="Path-3" points="16 24.0577949 22.8526554 33.1946687 33.0415051 16"></polyline>
                </g>
            </g>
        </g>
    </g>
</svg>