<?xml version="1.0" encoding="UTF-8"?>
<svg width="261px" height="278px" version="1.1" xmlns="http://www.w3.org/2000/svg">
  <g id="Artboard" stroke="#FFFFFF" stroke-width="2.25" opacity="0.45" fill="none">
    <path d="M305.883949,-47.8119736 C316.884613,-36.9162563 327.467651,-24.6657206 336.635919,-11.8295918 C351.117005,8.45116573 352.704066,36.147881 335.331553,53.5203945 L274.281818,114.570129 C256.378737,132.473211 227.487402,132.9343 209.679715,115.126613 L145.706105,51.1530028 C123.986571,29.4334693 87.0270064,29.8118756 65.8673739,50.971508 L36.5727239,80.2661581 L14.5519126,58.2453468 C-4.06271242,39.6307218 -1.40915808,15.2353955 13.0173757,-8.29724597 C32.3733252,-39.9404576 47.8771827,-54.9190646 78.1796725,-73.4595428 C104.581372,-89.6675691 132.079718,-84.568613 150.693814,-65.9545174 L238.779177,22.1308456 L246.923735,13.9862873 L182.875468,-50.0619801 L207.311793,-74.4983052 C225.813817,-93.0003289 240.765826,-98.1113038 272.662309,-75.8021421 C283.49359,-68.2316521 294.883285,-58.7087503 305.883949,-47.8119736 Z" id="path2" fill-rule="nonzero"></path>
    <path d="M282.466161,122.850203 L310.919113,94.3972516 L334.992086,118.470225 C353.659591,137.13773 348.510169,159.887139 334.579394,183.031551 C315.244414,215.192652 296.224518,234.781042 269.452278,248.158667 C243.473305,261.174699 223.535653,267.215 204.891482,248.570829 L108.748077,152.427424 L100.608976,160.566525 L164.680185,224.637734 L140.255993,249.061926 C121.766607,267.551311 96.4398462,261.029668 75.6231521,249.549314 C44.2796323,232.297183 25.8915186,211.746624 11.5498219,185.475984 C-0.42829415,163.53854 -5.32698405,138.206276 12.0366799,120.842613 L73.0566326,59.8226598 C90.6136558,42.2656366 120.143044,41.7824852 137.693182,59.3326233 L201.767043,123.406484 C223.116865,144.756306 260.403072,144.913292 282.466161,122.850203 Z" id="path1" fill-rule="nonzero"></path>
    <path d="M120.36387,212.884183 C113.738155,206.258468 102.887366,206.287715 96.1568742,213.019267 C89.4030727,219.773069 89.3176723,230.680011 95.9428574,237.305196 C102.592437,243.954776 113.476046,243.846042 120.229847,237.09224 C126.960869,230.361218 127.01345,219.533763 120.36387,212.884183 Z" id="Path"></path>
  </g>
</svg>
