<?xml version="1.0" encoding="UTF-8"?>
<svg viewBox="0 0 512 512" version="1.1" xmlns="http://www.w3.org/2000/svg" xmlns:xlink="http://www.w3.org/1999/xlink">
  <path d="M384,128 L448.190071,128 C483.431322,128 512,156.374603 512,191.939243 L512,320.060757 C512,355.373426 483.37556,384 448.190071,384 L384,384 L384,448.190071 C384,483.431322 355.625397,512 320.060757,512 L191.939243,512 C156.626574,512 128,483.37556 128,448.190071 L128,384 L63.8099289,384 C28.5686783,384 0,355.625397 0,320.060757 L0,191.939243 C0,156.626574 28.6244402,128 63.8099289,128 L128,128 L128,63.8099289 C128,28.5686783 156.374603,0 191.939243,0 L320.060757,0 C355.373426,0 384,28.6244402 384,63.8099289 L384,128 Z M256,128 L256,127.921429 C256,110.281965 241.538885,96 223.700195,96 L128,96 L128,128 L256,128 Z M384,384 L256,384 L256,384.078571 C256,401.718035 270.461115,416 288.299805,416 L384,416 L384,384 Z M320.10017,272 C373.064184,272 416,228.795252 416,175.949915 L416,128 L384,128 L384,176.148071 C384,211.412518 355.33255,240 320.083466,240 L191.89983,240 C138.935816,240 96,283.204748 96,336.050085 L96,384 L128,384 L128,335.851929 C128,300.587482 156.66745,272 191.916534,272 L320.10017,272 Z" fill="currentColor" fill-rule="evenodd"/>
</svg>
