<?xml version="1.0" standalone="no"?>
<!DOCTYPE svg PUBLIC "-//W3C//DTD SVG 20010904//EN"
 "http://www.w3.org/TR/2001/REC-SVG-20010904/DTD/svg10.dtd">
<svg version="1.0" xmlns="http://www.w3.org/2000/svg"
 width="700.000000pt" height="700.000000pt" viewBox="0 0 700.000000 700.000000"
 preserveAspectRatio="xMidYMid meet">
<metadata>
Created by potrace 1.11, written by Peter Selinger 2001-2013
</metadata>
<g transform="translate(0.000000,700.000000) scale(0.100000,-0.100000)"
fill="#000000" stroke="none">
<path d="M2461 6984 c-285 -61 -504 -230 -627 -484 -25 -52 -54 -142 -70 -213
-10 -47 -17 -597 -7 -598 4 0 319 -1 698 -3 763 -3 731 -1 838 -69 117 -75
187 -185 202 -318 l6 -49 -1343 -1 c-739 0 -1363 -2 -1388 -5 -383 -47 -696
-349 -759 -732 -6 -33 -10 -459 -10 -1012 0 -1010 1 -1029 47 -1160 95 -272
304 -470 588 -556 86 -27 98 -28 382 -32 l292 -4 0 39 c1 21 2 205 3 408 2
204 5 375 9 380 3 6 9 30 12 55 24 178 121 401 246 565 200 261 461 427 783
497 101 22 111 22 1052 24 523 1 986 5 1030 8 146 10 283 58 410 141 181 120
311 300 366 510 l24 90 0 900 0 900 -23 80 c-99 341 -359 580 -695 640 -117
21 -1969 20 -2066 -1z"/>
<path d="M5690 5228 c-1 -13 -1 -181 -2 -375 -1 -355 -8 -449 -43 -582 -44
-171 -122 -333 -223 -466 -161 -211 -379 -369 -627 -453 -49 -17 -103 -33
-120 -36 -16 -3 -43 -8 -60 -12 -99 -18 -251 -22 -1105 -22 -520 0 -967 -4
-995 -7 -79 -11 -210 -52 -288 -91 -39 -19 -74 -39 -77 -43 -3 -4 -21 -17 -40
-28 -45 -27 -149 -132 -196 -198 -53 -73 -111 -198 -136 -295 l-23 -85 0 -895
c0 -886 0 -896 22 -975 11 -44 27 -93 34 -110 7 -16 13 -32 14 -35 3 -14 51
-101 78 -140 54 -82 196 -211 287 -263 87 -49 201 -90 287 -104 26 -4 498 -8
1048 -8 l1000 0 88 28 c149 46 278 121 371 213 50 50 136 157 136 169 0 4 9
20 21 36 11 16 22 36 23 43 1 8 8 22 16 32 8 9 14 18 12 18 -2 1 -1 8 2 16 4
8 17 58 30 110 22 88 24 116 25 370 l2 275 -693 0 c-613 0 -699 2 -743 17
-170 55 -288 194 -310 366 l-6 52 1383 2 1383 3 80 23 c252 71 452 235 568
467 22 44 51 128 74 214 4 14 8 469 10 1011 2 998 2 994 -31 1146 -11 54 -64
166 -111 239 -43 66 -105 136 -178 200 -77 69 -242 147 -364 173 -78 17 -135
20 -358 21 l-265 2 0 -23z"/>
</g>
</svg>
